HIERARCHY
ROOT Hips
{
	OFFSET -3.958830 18.904000 13.208200
	CHANNELS 6 Xposition Yposition Zposition Zrotation Yrotation Xrotation 
	JOINT LHipJoint
	{
		OFFSET 0.000000 0.000000 0.000000
		CHANNELS 3 Zrotation Yrotation Xrotation
		JOINT LeftUpLeg
		{
			OFFSET 1.800000 -1.400000 0.085000
			CHANNELS 3 Zrotation Yrotation Xrotation
			JOINT LeftLeg
			{
				OFFSET 2.215000 -6.000000 0.000000
				CHANNELS 3 Zrotation Yrotation Xrotation
				JOINT LeftFoot
				{
					OFFSET 2.500000 -6.900000 0.000000
					CHANNELS 3 Zrotation Yrotation Xrotation
					JOINT LeftToeBase
					{
						OFFSET 0.200000 -0.500000 1.950000
						CHANNELS 3 Zrotation Yrotation Xrotation
						End Site
						{
							OFFSET 0.000000 0.000000 0.000000
						}
					}
				}
			}
		}
	}
	JOINT RHipJoint
	{
		OFFSET 0.000000 0.000000 0.000000
		CHANNELS 3 Zrotation Yrotation Xrotation
		JOINT RightUpLeg
		{
			OFFSET -1.800000 -1.400000 0.085000
			CHANNELS 3 Zrotation Yrotation Xrotation
			JOINT RightLeg
			{
				OFFSET -2.215000 -6.000000 0.000000
				CHANNELS 3 Zrotation Yrotation Xrotation
				JOINT RightFoot
				{
					OFFSET -2.500000 -6.900000 0.000000
					CHANNELS 3 Zrotation Yrotation Xrotation
					JOINT RightToeBase
					{
						OFFSET -0.200000 -0.500000 1.950000
						CHANNELS 3 Zrotation Yrotation Xrotation
						End Site
						{
							OFFSET 0.000000 0.000000 0.000000
						}
					}
				}
			}
		}
	}
	JOINT LowerBack
	{
		OFFSET 0.000000 0.000000 0.000000
		CHANNELS 3 Zrotation Yrotation Xrotation
		JOINT Spine
		{
			OFFSET -0.087000 1.940000 -0.288900
			CHANNELS 3 Zrotation Yrotation Xrotation
			JOINT Spine1
			{
				OFFSET 0.000000 1.950000 0.060000
				CHANNELS 3 Zrotation Yrotation Xrotation
				JOINT Neck
				{
					OFFSET 0.000000 0.000000 0.000000
					CHANNELS 3 Zrotation Yrotation Xrotation
					JOINT Neck1
					{
						OFFSET 0.000000 1.600000 0.340000
						CHANNELS 3 Zrotation Yrotation Xrotation
						JOINT Head
						{
							OFFSET 0.000000 1.667000 -0.240000
							CHANNELS 3 Zrotation Yrotation Xrotation
							End Site
							{
								OFFSET 0.000000 0.000000 0.000000
							}
						}
					}
				}
				JOINT LeftShoulder
				{
					OFFSET 0.000000 0.000000 0.000000
					CHANNELS 3 Zrotation Yrotation Xrotation
					JOINT LeftArm
					{
						OFFSET 2.700000 1.550000 -0.730000
						CHANNELS 3 Zrotation Yrotation Xrotation
						JOINT LeftForeArm
						{
							OFFSET 5.450000 0.000000 0.000000
							CHANNELS 3 Zrotation Yrotation Xrotation
							JOINT LeftHand
							{
								OFFSET 3.450000 0.000000 0.000000
								CHANNELS 3 Zrotation Yrotation Xrotation
								JOINT LeftHandIndex1
								{
									OFFSET 0.750000 0.000000 0.000000
									CHANNELS 3 Zrotation Yrotation Xrotation
									End Site
									{
										OFFSET 0.000000 0.000000 0.000000
									}
								}
							}
						}
					}
				}
				JOINT RightShoulder
				{
					OFFSET 0.000000 0.000000 0.000000
					CHANNELS 3 Zrotation Yrotation Xrotation
					JOINT RightArm
					{
						OFFSET -2.700000 1.550000 -0.730000
						CHANNELS 3 Zrotation Yrotation Xrotation
						JOINT RightForeArm
						{
							OFFSET -5.450000 0.000000 0.000000
							CHANNELS 3 Zrotation Yrotation Xrotation
							JOINT RightHand
							{
								OFFSET -3.450000 0.000000 0.000000
								CHANNELS 3 Zrotation Yrotation Xrotation
								JOINT RightHandIndex1
								{
									OFFSET -0.750000 0.000000 0.000000
									CHANNELS 3 Zrotation Yrotation Xrotation
									End Site
									{
										OFFSET 0.000000 0.000000 0.000000
									}
								}
							}
						}
					}
				}
			}
		}
	}
}
MOTION
Frames: 9
Frame Time: 0.016667
17.148150 17.925850 -24.908470 19.803176 -45.122407 -20.150866 -16.007118 9.116822 9.215193 34.149517 -0.813519 -68.081170 -53.896154 30.418330 32.463438 1.954753 13.044958 0.393822 0.067410 0.065060 -0.107620 18.371046 -8.954590 0.290837 -13.283912 1.544876 -6.457291 2.527518 -6.958814 28.440664 -0.350720 -4.917841 2.680451 0.011410 0.441390 0.111590 -2.561901 -2.080542 -9.679446 -11.825511 6.336643 24.302037 -3.755215 6.949165 1.973952 0.573362 -11.059730 -16.728743 -22.650305 13.253543 20.734039 -2.549810 7.731460 -8.811240 -1.999555 -26.793621 1.414799 5.094376 -18.115280 -10.535202 60.100654 -79.798235 -43.587972 -3.274775 1.879009 0.181860 0.155050 -0.080390 0.197450 3.913088 38.137756 12.978599 -4.374383 12.363482 -13.269456 -117.838910 42.501127 -74.101678 2.064313 -1.502689 -0.141760 0.314700 0.123880 0.081980 
17.169850 17.947960 -24.917940 19.471400 -46.906406 -21.183863 -16.033291 8.949075 8.995682 33.647236 0.275002 -66.339601 -52.494860 27.049626 29.718913 1.779690 12.490897 0.501396 0.124030 0.127500 -0.012400 18.331135 -8.671811 0.802143 -13.424647 0.433754 2.841968 3.889953 -5.569319 12.605753 -0.441133 -4.468480 2.905068 0.037070 0.354470 0.096480 -2.576639 -2.089421 -9.845955 -10.810861 6.279049 24.561791 -4.439361 7.335909 3.129984 1.326124 -10.914697 -17.072273 -22.443852 13.113035 22.673318 -4.289450 9.292610 -9.970910 -1.610012 -27.582357 2.259536 4.977162 -15.846793 -11.325210 65.427427 -78.601818 -46.832802 -3.163187 1.593740 0.216030 0.115690 -0.023500 0.187620 1.901684 39.579243 11.849939 -4.905043 12.437009 -14.168808 -95.609416 54.892210 -57.042189 1.918633 -0.674307 -0.131660 0.294940 0.062610 0.046470 
17.141320 18.009080 -24.965470 20.461846 -47.672587 -22.891705 -16.062243 8.801860 8.823768 33.635117 1.515292 -65.707042 -47.764174 24.020948 28.072196 1.562853 11.877060 0.617527 0.187910 0.199750 0.081260 18.308125 -8.441200 1.178937 -14.049134 0.370130 6.899368 3.999520 -5.042629 5.877600 -0.582178 -4.735949 2.819999 0.065940 0.253840 0.072720 -2.591504 -2.034129 -9.956144 -11.701501 7.044776 24.722437 -4.467475 8.015480 3.671605 1.900372 -11.226683 -17.506415 -22.982486 12.806756 23.439426 -6.493900 10.241710 -9.889130 -1.267204 -28.386217 2.854069 6.159666 -13.671029 -12.029109 66.500571 -77.071215 -46.174647 -3.090290 1.669745 0.211990 0.075770 0.015520 0.186160 0.576970 41.648524 10.859366 -7.110499 12.814908 -16.044927 -82.215834 56.665940 -44.615907 2.036883 -0.904907 -0.106780 0.235540 -0.027170 0.025230 
17.096360 18.047840 -25.033380 21.852783 -48.167874 -25.033396 -16.068783 8.831619 8.616518 33.118562 2.883356 -64.661400 -42.066116 21.070663 26.311018 1.169164 11.289149 0.732052 0.242640 0.254440 0.140060 18.305618 -8.375154 1.319073 -14.165627 0.393895 8.743610 2.683080 -4.730878 3.382516 -0.702391 -4.810685 2.802595 0.126950 0.260840 0.047970 -2.530722 -2.093291 -9.881605 -14.650855 8.349995 25.297464 -3.133156 8.302215 3.140664 1.616465 -11.450645 -16.436297 -23.288047 14.487557 23.498455 -5.462770 10.974790 -14.727130 0.000484 -27.083887 3.350354 6.528875 -12.765169 -11.669589 75.981350 -72.628703 -50.445907 -3.035953 1.226575 0.327310 0.036640 0.071760 0.201390 -0.394365 41.036053 8.780490 -12.300066 15.472336 -15.639161 -60.681237 56.990678 -28.465607 1.961809 -1.076489 -0.171590 0.366870 -0.027130 -0.006320 
17.049890 18.056940 -25.031690 24.994046 -51.606111 -27.840396 -16.002867 8.672865 8.513532 33.641220 6.349643 -62.796285 -38.023554 20.317220 25.161315 0.885511 11.121734 0.693125 0.384800 0.414480 0.248210 18.369657 -8.520205 1.362121 -15.379120 0.889187 8.182854 2.169860 -4.578811 2.551839 -0.789217 -4.781428 2.763707 0.242420 0.190010 0.046460 -2.842409 -1.354232 -9.817281 -14.544249 9.994042 24.276752 -4.673641 10.314594 3.527739 0.781284 -11.872407 -15.810740 -23.377217 15.371886 21.765651 -4.131880 10.764840 -21.297900 0.217181 -25.864251 3.510582 6.215895 -12.672210 -11.556534 78.909340 -66.504335 -49.307617 -3.062528 1.445450 0.434160 -0.041950 0.159200 0.212660 0.763290 40.449880 8.197867 -9.594093 19.019512 -15.648355 -63.308874 53.327277 -29.414570 2.029045 -1.081817 -0.180200 0.433140 -0.069380 -0.036540 
17.049060 18.047440 -24.996340 30.979044 -59.169272 -35.227656 -15.855107 8.654896 8.235689 32.882104 11.536451 -60.687911 -27.755461 19.532085 26.609832 0.580099 10.897191 0.666765 0.519320 0.586790 0.341260 18.459792 -8.960896 1.409297 -16.793526 1.576451 7.024438 1.326748 -4.495095 3.409698 -0.844141 -4.675522 2.790822 0.337420 0.111920 -0.010130 -3.349311 -0.066457 -9.745704 -10.815308 12.635112 25.078759 -8.200229 14.568793 3.255446 1.205943 -12.814604 -16.720967 -25.424615 16.720931 21.978074 -1.059150 10.749180 -24.978280 2.064219 -25.706684 4.239859 3.698179 -12.475318 -12.445105 77.300184 -60.687408 -45.532445 -3.037436 1.790582 0.502920 -0.146190 0.247890 0.253440 -1.695684 42.474904 6.550812 -9.599512 20.552219 -16.563069 -54.548517 56.426717 -25.858025 2.203381 -1.235286 -0.170560 0.499730 -0.164080 -0.030620 
17.016930 18.034600 -25.015290 33.449279 -61.006645 -39.046507 -15.825282 8.637736 8.078747 32.827364 13.754805 -59.586442 -21.801622 17.522551 24.625734 0.316681 10.425021 0.769962 0.567370 0.642500 0.412660 18.466393 -9.088235 1.543664 -17.034559 1.621083 8.110928 1.016369 -4.546282 2.610071 -0.927051 -4.812677 2.739655 0.388500 0.083020 -0.019170 -3.652691 0.579919 -9.748265 -9.603914 13.233246 26.093896 -10.186213 16.095139 4.022852 1.363786 -12.664955 -16.772556 -24.424154 16.665396 22.923882 -2.026730 11.312050 -27.030810 1.963635 -26.176884 3.798078 5.698497 -11.494544 -13.592558 72.077748 -57.045090 -39.136530 -3.086110 1.994010 0.549680 -0.157850 0.293460 0.258810 -2.198185 43.571028 6.010121 -9.314540 21.461036 -17.112020 -50.988644 51.971225 -22.747361 2.443514 -1.423096 -0.197950 0.540970 -0.199280 -0.056300 
17.070930 17.985960 -25.053230 37.576911 -62.867820 -40.954476 -15.836573 8.269734 8.429910 34.460565 16.887654 -61.137040 -20.148651 17.167159 22.383778 0.270681 10.711686 0.687922 0.536930 0.594110 0.386290 18.544047 -9.028117 1.290835 -17.573874 2.308002 4.448789 0.841242 -4.250299 3.731913 -0.761635 -4.547732 2.812024 0.410800 0.172530 0.010780 -3.666893 0.917572 -9.875152 -9.582105 14.195493 24.572150 -10.939347 17.009937 3.934008 1.075018 -13.196714 -16.586273 -24.897899 16.878461 20.943291 -3.444350 11.445850 -23.043670 -0.515902 -27.146925 4.128232 7.801914 -9.735995 -13.806591 69.599359 -52.919631 -34.608989 -3.308529 2.222130 0.467560 -0.047980 0.200380 0.250330 0.896085 45.056508 5.458579 -11.444701 23.041410 -16.956369 -49.294762 47.167386 -20.139024 2.556660 -1.552869 -0.226350 0.533680 -0.152340 -0.062820 
17.074190 17.942150 -25.084430 35.893232 -62.631406 -38.553864 -15.870669 8.202659 8.565312 35.298243 17.170796 -61.017610 -20.699421 16.486599 20.354043 0.251521 10.767473 0.681133 0.448580 0.466450 0.346140 18.538804 -8.991558 1.210305 -16.728947 2.247890 3.638105 1.148784 -4.275539 4.466944 -0.643508 -4.588533 2.778683 0.373910 0.251910 0.101500 -3.536409 0.782619 -9.920557 -8.807299 13.482106 23.352929 -11.715837 17.207811 5.786439 1.868868 -12.995135 -17.189326 -23.317365 14.452162 20.086126 -7.896750 11.111390 -17.718720 -3.955787 -29.329725 4.143928 11.262914 -8.413195 -14.387778 63.525595 -47.856071 -27.661505 -3.672254 2.559042 0.335460 0.116930 0.084080 0.203260 2.934577 47.512281 6.133058 -14.262168 20.924524 -17.524826 -45.490579 43.899514 -17.167207 2.684374 -1.819535 -0.221990 0.430420 -0.076880 -0.083410 
